<?xml version="1.0" standalone="no"?>
<!DOCTYPE svg PUBLIC "-//W3C//DTD SVG 20010904//EN"
 "http://www.w3.org/TR/2001/REC-SVG-20010904/DTD/svg10.dtd">
<svg version="1.0" xmlns="http://www.w3.org/2000/svg"
 width="1024.000000pt" height="1024.000000pt" viewBox="0 0 1024.000000 1024.000000"
 preserveAspectRatio="xMidYMid meet">

<g transform="translate(0.000000,1024.000000) scale(0.100000,-0.100000)"
fill="#000000" stroke="none">
<path d="M2230 5295 l0 -2055 1445 0 1445 0 0 325 0 325 -1115 0 -1115 0 0
635 0 635 955 0 955 0 0 315 0 315 -955 0 -955 0 0 460 0 460 1115 0 1115 0 0
320 0 320 -1445 0 -1445 0 0 -2055z"/>
<path d="M6524 7002 c-181 -191 -471 -498 -644 -682 -173 -184 -417 -442 -542
-575 l-228 -240 0 -450 0 -450 73 75 c40 41 121 127 180 190 92 98 109 112
121 100 28 -31 769 -885 1124 -1297 l373 -433 426 0 c405 0 425 1 411 18 -157
185 -1751 1990 -1867 2114 -29 31 -51 61 -50 66 2 5 186 196 409 423 369 376
1222 1256 1379 1422 l64 67 -450 0 -451 0 -328 -348z"/>
</g>
</svg>
