<svg version="1.0" xmlns="http://www.w3.org/2000/svg"
 width="32" height="32" viewBox="0 0 1024.000000 1024.000000"
 preserveAspectRatio="xMidYMid meet">

<g transform="translate(0.000000,1024.000000) scale(0.100000,-0.100000)"
fill="black" stroke="">
<path d="M0 5120 l0 -5120 5120 0 5120 0 0 5120 0 5120 -5120 0 -5120 0 0
-5120z m6152 3563 c-6 -15 -174 -518 -373 -1118 -286 -861 -363 -1104 -367
-1156 -10 -139 56 -254 182 -319 l69 -35 486 -5 c477 -5 487 -5 527 -27 113
-60 145 -196 80 -338 -26 -58 -239 -367 -452 -656 l-122 -166 124 -189 c68
-104 123 -193 124 -197 0 -4 -35 -7 -77 -5 l-78 3 -29 55 c-16 30 -95 168
-176 305 -81 138 -152 260 -159 273 -11 22 6 41 320 360 l332 337 -168 3 -167
2 -300 -295 c-259 -255 -339 -328 -313 -285 4 7 135 565 135 577 0 2 -64 3
-142 3 l-143 0 -23 -108 c-55 -253 -264 -1199 -268 -1214 -5 -17 6 -18 135
-18 78 0 141 2 141 5 0 4 109 491 135 603 5 20 22 -4 94 -130 48 -84 127 -220
174 -301 50 -85 84 -154 80 -160 -4 -7 -228 -316 -498 -687 -270 -371 -653
-898 -850 -1170 -353 -489 -756 -1032 -761 -1027 -3 2 237 760 454 1437 275
860 284 891 279 952 -11 129 -99 231 -242 281 -19 7 -218 13 -525 17 -487 5
-496 6 -552 28 -160 64 -269 258 -238 423 15 78 49 141 142 259 127 161 723
902 893 1110 83 102 238 293 345 425 107 132 310 382 450 555 141 173 363 448
495 610 131 162 365 450 519 638 155 189 287 353 295 363 19 26 26 16 13 -18z"/>
<path d="M4260 5815 c0 -3 -65 -301 -145 -662 -80 -361 -145 -661 -145 -665 0
-4 163 -8 363 -8 388 0 415 3 513 53 231 117 313 407 162 572 -27 30 -58 57
-69 60 -29 9 -23 19 20 39 66 28 135 98 165 166 25 55 28 71 24 148 -2 57 -10
100 -21 123 -41 83 -135 148 -247 169 -52 10 -620 15 -620 5z m577 -251 c60
-45 52 -150 -18 -216 -56 -53 -115 -68 -271 -68 -119 0 -129 1 -124 18 6 20
66 284 66 290 0 2 72 2 159 0 143 -3 162 -5 188 -24z m-93 -538 c45 -19 66
-52 66 -104 0 -80 -46 -147 -125 -183 -34 -16 -67 -19 -212 -19 -95 0 -173 2
-173 4 0 3 16 74 35 157 19 84 35 154 35 156 0 2 77 3 170 3 123 0 180 -4 204
-14z"/>
</g>
</svg>
